# xmcd
#
# Track frame offsets: 
#        150
#        15356
#        31623
#        47725
#        63571
#        79839
#        94566
#        110959
#        126714
#        144417
#        159663
#        174964
#
# Disc length: 2544 seconds
#
# Revision: 1
# Processed by: cddbd v1.5.2PL0 Copyright (c) Steve Scherf et al.
# Submitted via: ExactAudioCopyFreeDBPlugin 1.0
#
DISCID=9a09ee0c
DTITLE=Brandy Clark - 12 Stories
DYEAR=2013
DGENRE=Country
TTITLE0=Pray to Jesus
TTITLE1=Crazy Women
TTITLE2=What'll Keep Me Out of Heaven
TTITLE3=Get High
TTITLE4=Hold My Hand
TTITLE5=Stripes
TTITLE6=In Some Corner
TTITLE7=Take a Little Pill
TTITLE8=Hungover
TTITLE9=Illegitimate Children
TTITLE10=The Day She Got Divorced
TTITLE11=Just Like Him
EXTD=
EXTT0=
EXTT1=
EXTT2=
EXTT3=
EXTT4=
EXTT5=
EXTT6=
EXTT7=
EXTT8=
EXTT9=
EXTT10=
EXTT11=
PLAYORDER=
